  0
SECTION
  2
HEADER
  9
$ACADVER
  1
AC1002
  9
$INSBASE
 10
0.0
 20
0.0
  9
$EXTMIN
 10
-15006.0
 20
16200.2
  9
$EXTMAX
 10
-5002.3
 20
26742.1
  9
$LIMMIN
 10
0.0
 20
0.0
  9
$LIMMAX
 10
0.0
 20
0.0
  9
$VIEWCTR
 10
6.591288
 20
4.579184
  9
$VIEWSIZE
 40
9.158369
  9
$SNAPMODE
 70
     0
  9
$SNAPUNIT
 10
1.0
 20
1.0
  9
$SNAPBASE
 10
0.0
 20
0.0
  9
$SNAPANG
 50
0.0
  9
$SNAPSTYLE
 70
     0
  9
$SNAPISOPAIR
 70
     0
  9
$GRIDMODE
 70
     0
  9
$GRIDUNIT
 10
0.0
 20
0.0
  9
$ORTHOMODE
 70
     0
  9
$REGENMODE
 70
     1
  9
$FILLMODE
 70
     1
  9
$QTEXTMODE
 70
     0
  9
$DRAGMODE
 70
     2
  9
$LTSCALE
 40
1.0
  9
$OSMODE
 70
     0
  9
$ATTMODE
 70
     1
  9
$TEXTSIZE
 40
0.2
  9
$TRACEWID
 40
0.05
  9
$TEXTSTYLE
  7
STANDARD
  9
$CLAYER
  8
0
  9
$CELTYPE
  6
CONTINUOUS
  9
$CECOLOR
 62
   256
  9
$DIMSCALE
 40
1.0
  9
$DIMASZ
 40
0.18
  9
$DIMEXO
 40
0.0625
  9
$DIMDLI
 40
0.38
  9
$DIMRND
 40
0.0
  9
$DIMDLE
 40
0.0
  9
$DIMEXE
 40
0.18
  9
$DIMTP
 40
0.0
  9
$DIMTM
 40
0.0
  9
$DIMTXT
 40
0.18
  9
$DIMCEN
 40
0.09
  9
$DIMTSZ
 40
0.0
  9
$DIMTOL
 70
     0
  9
$DIMLIM
 70
     0
  9
$DIMTIH
 70
     1
  9
$DIMTOH
 70
     1
  9
$DIMSE1
 70
     0
  9
$DIMSE2
 70
     0
  9
$DIMTAD
 70
     0
  9
$DIMZIN
 70
     0
  9
$DIMBLK
  1

  9
$LUNITS
 70
     2
  9
$LUPREC
 70
     4
  9
$AXISMODE
 70
     0
  9
$AXISUNIT
 10
0.0
 20
0.0
  9
$SKETCHINC
 40
0.1
  9
$FILLETRAD
 40
0.0
  9
$AUNITS
 70
     0
  9
$AUPREC
 70
     0
  9
$MENU
  1
acad
  9
$ELEVATION
 40
0.0
  9
$THICKNESS
 40
0.0
  9
$VIEWDIR
 10
0.0
 20
0.0
 30
1.0
  9
$LIMCHECK
 70
     0
  9
$BLIPMODE
 70
     1
  9
$CHAMFERA
 40
0.0
  9
$CHAMFERB
 40
0.0
  9
$FASTZOOM
 70
     1
  9
$SKPOLY
 70
     0
  9
$TDCREATE
 40
0.000000000
  9
$TDUPDATE
 40
0.000000000
  9
$TDINDWG
 40
0.0000000000
  9
$TDUSRTIMER
 40
0.0000000000
  9
$USRTIMER
 70
     1
  9
$ANGBASE
 50
0.0
  9
$ANGDIR
 70
     0
  9
$PDMODE
 70
     0
  9
$PDSIZE
 40
0.0
  9
$PLINEWID
 40
0.0
  9
$COORDS
 70
     0
  9
$USERI1
 70
     0
  9
$USERI2
 70
     0
  9
$USERI3
 70
     0
  9
$USERI4
 70
     0
  9
$USERI5
 70
     0
  9
$USERR1
 40
0.0
  9
$USERR2
 40
0.0
  9
$USERR3
 40
0.0
  9
$USERR4
 40
0.0
  9
$USERR5
 40
0.0
  0
ENDSEC
  0
SECTION
  2
TABLES
  0
TABLE
  2
LTYPE
 70
     1
  0
LTYPE
  2
CONTINUOUS
 70
    64
  3
Solid line
 72
    65
 73
     0
 40
0.0
  0
ENDTAB
  0
TABLE
  2
LAYER
 70
     2
  0
LAYER
  2
0
 70
     0
 62
     7
  6
CONTINUOUS
  0
LAYER
  2
LAYER_2
 70
     0
 62
     7
  6
CONTINUOUS
  0
ENDTAB
  0
TABLE
  2
STYLE
 70
     1
  0
STYLE
  2
STANDARD
 70
     0
 40
0.0
 41
1.0
 50
0.0
 71
     0
 42
0.0
  3
txt
  4

  0
ENDTAB
  0
TABLE
  2
VIEW
 70
     0
  0
ENDTAB
  0
ENDSEC
  0
SECTION
  2
BLOCKS
  0
ENDSEC
  0
SECTION
  2
ENTITIES
  0
POLYLINE
  8
0
 66
     1
  0
VERTEX
  8
0
 10
-13371.6
 20
17028.5
  0
VERTEX
  8
0
 10
-8373.3
 20
17028.5
  0
VERTEX
  8
0
 10
-8373.3
 20
17500.3
  0
VERTEX
  8
0
 10
-8830.1
 20
17505.7
  0
VERTEX
  8
0
 10
-8834.5
 20
22174.6
  0
VERTEX
  8
0
 10
-8220.4
 20
22174.6
  0
VERTEX
  8
0
 10
-8164.1
 20
22042.8
  0
VERTEX
  8
0
 10
-8164.1
 20
21814.5
  0
VERTEX
  8
0
 10
-8621.6
 20
19294.0
  0
VERTEX
  8
0
 10
-8671.6
 20
19029.8
  0
VERTEX
  8
0
 10
-8671.6
 20
18836.8
  0
VERTEX
  8
0
 10
-8646.6
 20
18633.7
  0
VERTEX
  8
0
 10
-8570.7
 20
18415.6
  0
VERTEX
  8
0
 10
-8499.7
 20
18257.8
  0
VERTEX
  8
0
 10
-8413.2
 20
18099.9
  0
VERTEX
  8
0
 10
-8327.0
 20
17987.8
  0
VERTEX
  8
0
 10
-8225.6
 20
17877.3
  0
VERTEX
  8
0
 10
-8103.1
 20
17769.8
  0
VERTEX
  8
0
 10
-7987.0
 20
17684.1
  0
VERTEX
  8
0
 10
-7803.6
 20
17592.1
  0
VERTEX
  8
0
 10
-7600.8
 20
17521.3
  0
VERTEX
  8
0
 10
-7468.9
 20
17505.7
  0
VERTEX
  8
0
 10
-7189.1
 20
17500.3
  0
VERTEX
  8
0
 10
-6975.4
 20
17521.3
  0
VERTEX
  8
0
 10
-6802.6
 20
17582.1
  0
VERTEX
  8
0
 10
-6595.1
 20
17678.9
  0
VERTEX
  8
0
 10
-6437.3
 20
17785.6
  0
VERTEX
  8
0
 10
-6289.6
 20
17927.7
  0
VERTEX
  8
0
 10
-6173.0
 20
18059.8
  0
VERTEX
  8
0
 10
-6071.3
 20
18211.9
  0
VERTEX
  8
0
 10
-5980.3
 20
18385.0
  0
VERTEX
  8
0
 10
-5933.8
 20
18532.0
  0
VERTEX
  8
0
 10
-5893.6
 20
18755.4
  0
VERTEX
  8
0
 10
-5893.6
 20
19029.8
  0
VERTEX
  8
0
 10
-6412.3
 20
21977.0
  0
VERTEX
  8
0
 10
-6442.3
 20
22118.7
  0
VERTEX
  8
0
 10
-6523.4
 20
22271.6
  0
VERTEX
  8
0
 10
-6614.6
 20
22387.1
  0
VERTEX
  8
0
 10
-6716.9
 20
22479.1
  0
VERTEX
  8
0
 10
-6838.5
 20
22535.4
  0
VERTEX
  8
0
 10
-6965.1
 20
22581.2
  0
VERTEX
  8
0
 10
-7183.8
 20
22601.9
  0
VERTEX
  8
0
 10
-7286.2
 20
22647.7
  0
VERTEX
  8
0
 10
-7371.6
 20
22728.8
  0
VERTEX
  8
0
 10
-7422.9
 20
22835.1
  0
VERTEX
  8
0
 10
-7427.7
 20
22921.9
  0
VERTEX
  8
0
 10
-7239.7
 20
22921.9
  0
VERTEX
  8
0
 10
-7239.7
 20
24095.7
  0
VERTEX
  8
0
 10
-7458.3
 20
24095.7
  0
VERTEX
  8
0
 10
-7474.0
 20
24435.8
  0
VERTEX
  8
0
 10
-7503.8
 20
24603.1
  0
VERTEX
  8
0
 10
-7559.1
 20
24801.7
  0
VERTEX
  8
0
 10
-7636.6
 20
24964.3
  0
VERTEX
  8
0
 10
-7738.2
 20
25131.5
  0
VERTEX
  8
0
 10
-7844.8
 20
25223.4
  0
VERTEX
  8
0
 10
-7966.0
 20
25223.4
  0
VERTEX
  8
0
 10
-7966.0
 20
24959.0
  0
VERTEX
  8
0
 10
-7880.2
 20
24913.5
  0
VERTEX
  8
0
 10
-7813.4
 20
24745.6
  0
VERTEX
  8
0
 10
-7763.2
 20
24557.9
  0
VERTEX
  8
0
 10
-7732.9
 20
24334.0
  0
VERTEX
  8
0
 10
-7732.9
 20
24099.4
  0
VERTEX
  8
0
 10
-7936.1
 20
24099.4
  0
VERTEX
  8
0
 10
-8408.2
 20
23866.2
  0
VERTEX
  8
0
 10
-8408.2
 20
22916.4
  0
VERTEX
  8
0
 10
-7803.6
 20
22916.4
  0
VERTEX
  8
0
 10
-7799.0
 20
22748.9
  0
VERTEX
  8
0
 10
-7758.3
 20
22622.1
  0
VERTEX
  8
0
 10
-7687.0
 20
22494.9
  0
VERTEX
  8
0
 10
-7570.0
 20
22372.9
  0
VERTEX
  8
0
 10
-7438.2
 20
22266.1
  0
VERTEX
  8
0
 10
-7270.4
 20
22205.0
  0
VERTEX
  8
0
 10
-7026.0
 20
22179.6
  0
VERTEX
  8
0
 10
-6920.0
 20
22128.9
  0
VERTEX
  8
0
 10
-6833.3
 20
22052.9
  0
VERTEX
  8
0
 10
-6779.8
 20
21930.3
  0
VERTEX
  8
0
 10
-6779.8
 20
21930.3
  0
VERTEX
  8
0
 10
-6748.6
 20
21750.9
  0
VERTEX
  8
0
 10
-6717.7
 20
21571.6
  0
VERTEX
  8
0
 10
-6686.8
 20
21392.2
  0
VERTEX
  8
0
 10
-6656.2
 20
21213.1
  0
VERTEX
  8
0
 10
-6625.3
 20
21033.8
  0
VERTEX
  8
0
 10
-6594.4
 20
20854.7
  0
VERTEX
  8
0
 10
-6563.3
 20
20675.6
  0
VERTEX
  8
0
 10
-6532.2
 20
20496.6
  0
VERTEX
  8
0
 10
-6500.5
 20
20317.5
  0
VERTEX
  8
0
 10
-6468.7
 20
20138.5
  0
VERTEX
  8
0
 10
-6436.3
 20
19959.5
  0
VERTEX
  8
0
 10
-6403.6
 20
19780.7
  0
VERTEX
  8
0
 10
-6370.1
 20
19601.9
  0
VERTEX
  8
0
 10
-6336.2
 20
19423.1
  0
VERTEX
  8
0
 10
-6301.5
 20
19244.5
  0
VERTEX
  8
0
 10
-6266.3
 20
18829.4
  0
VERTEX
  8
0
 10
-6307.1
 20
18640.1
  0
VERTEX
  8
0
 10
-6376.0
 20
18466.4
  0
VERTEX
  8
0
 10
-6474.1
 20
18299.3
  0
VERTEX
  8
0
 10
-6612.1
 20
18155.5
  0
VERTEX
  8
0
 10
-6796.2
 20
18023.6
  0
VERTEX
  8
0
 10
-6957.9
 20
17948.2
  0
VERTEX
  8
0
 10
-7137.4
 20
17907.6
  0
VERTEX
  8
0
 10
-7333.1
 20
17902.3
  0
VERTEX
  8
0
 10
-7551.6
 20
17942.0
  0
VERTEX
  8
0
 10
-7730.7
 20
18016.8
  0
VERTEX
  8
0
 10
-7908.5
 20
18121.0
  0
VERTEX
  8
0
 10
-8064.5
 20
18282.3
  0
VERTEX
  8
0
 10
-8191.4
 20
18490.2
  0
VERTEX
  8
0
 10
-8283.7
 20
18772.4
  0
VERTEX
  8
0
 10
-8283.7
 20
19049.1
  0
VERTEX
  8
0
 10
-7961.5
 20
21025.0
  0
VERTEX
  8
0
 10
-7782.1
 20
22097.9
  0
VERTEX
  8
0
 10
-7764.8
 20
22322.7
  0
VERTEX
  8
0
 10
-7845.8
 20
22454.8
  0
VERTEX
  8
0
 10
-7977.3
 20
22541.9
  0
VERTEX
  8
0
 10
-8834.0
 20
22541.9
  0
VERTEX
  8
0
 10
-8839.7
 20
25224.2
  0
VERTEX
  8
0
 10
-12929.4
 20
25224.2
  0
VERTEX
  8
0
 10
-12929.4
 20
17524.0
  0
VERTEX
  8
0
 10
-13373.6
 20
17519.4
  0
VERTEX
  8
0
 10
-13371.6
 20
17028.5
  0
SEQEND
  8
0
  0
POLYLINE
  8
0
 66
     1
  0
VERTEX
  8
0
 10
-12457.3
 20
24847.7
  0
VERTEX
  8
0
 10
-9328.3
 20
24847.7
  0
VERTEX
  8
0
 10
-9328.3
 20
22981.5
  0
VERTEX
  8
0
 10
-12461.9
 20
22981.5
  0
VERTEX
  8
0
 10
-12457.3
 20
24847.7
  0
SEQEND
  8
0
  0
POLYLINE
  8
0
 66
     1
  0
VERTEX
  8
0
 10
-8295.7
 20
23715.2
  0
VERTEX
  8
0
 10
-7967.8
 20
23892.8
  0
VERTEX
  8
0
 10
-7967.4
 20
23122.6
  0
VERTEX
  8
0
 10
-8291.0
 20
23122.6
  0
VERTEX
  8
0
 10
-8295.7
 20
23715.2
  0
SEQEND
  8
0
  0
POLYLINE
  8
0
 66
     1
  0
VERTEX
  8
0
 10
-14452.7
 20
26168.3
  0
VERTEX
  8
0
 10
-14269.4
 20
26389.3
  0
VERTEX
  8
0
 10
-5711.8
 20
26370.0
  0
VERTEX
  8
0
 10
-5519.0
 20
26168.3
  0
VERTEX
  8
0
 10
-5377.8
 20
26008.4
  0
VERTEX
  8
0
 10
-5355.1
 20
16903.5
  0
VERTEX
  8
0
 10
-5494.5
 20
16753.2
  0
VERTEX
  8
0
 10
-5651.7
 20
16553.0
  0
VERTEX
  8
0
 10
-14269.6
 20
16577.0
  0
VERTEX
  8
0
 10
-14412.7
 20
16738.9
  0
VERTEX
  8
0
 10
-14653.2
 20
16943.7
  0
VERTEX
  8
0
 10
-14653.2
 20
25988.4
  0
VERTEX
  8
0
 10
-14452.7
 20
26168.3
  0
SEQEND
  8
0
  0
ENDSEC
  0
EOF
