  0
SECTION
  2
HEADER
  9
$ACADVER
  1
AC1002
  9
$INSBASE
 10
0.0
 20
0.0
  9
$EXTMIN
 10
217791.2
 20
-503471.8
  9
$EXTMAX
 10
382737.4
 20
-242877.8
  9
$LIMMIN
 10
0.0
 20
0.0
  9
$LIMMAX
 10
0.0
 20
0.0
  9
$VIEWCTR
 10
6.591288
 20
4.579184
  9
$VIEWSIZE
 40
9.158369
  9
$SNAPMODE
 70
     0
  9
$SNAPUNIT
 10
1.0
 20
1.0
  9
$SNAPBASE
 10
0.0
 20
0.0
  9
$SNAPANG
 50
0.0
  9
$SNAPSTYLE
 70
     0
  9
$SNAPISOPAIR
 70
     0
  9
$GRIDMODE
 70
     0
  9
$GRIDUNIT
 10
0.0
 20
0.0
  9
$ORTHOMODE
 70
     0
  9
$REGENMODE
 70
     1
  9
$FILLMODE
 70
     1
  9
$QTEXTMODE
 70
     0
  9
$DRAGMODE
 70
     2
  9
$LTSCALE
 40
1.0
  9
$OSMODE
 70
     0
  9
$ATTMODE
 70
     1
  9
$TEXTSIZE
 40
0.2
  9
$TRACEWID
 40
0.05
  9
$TEXTSTYLE
  7
STANDARD
  9
$CLAYER
  8
0
  9
$CELTYPE
  6
CONTINUOUS
  9
$CECOLOR
 62
   256
  9
$DIMSCALE
 40
1.0
  9
$DIMASZ
 40
0.18
  9
$DIMEXO
 40
0.0625
  9
$DIMDLI
 40
0.38
  9
$DIMRND
 40
0.0
  9
$DIMDLE
 40
0.0
  9
$DIMEXE
 40
0.18
  9
$DIMTP
 40
0.0
  9
$DIMTM
 40
0.0
  9
$DIMTXT
 40
0.18
  9
$DIMCEN
 40
0.09
  9
$DIMTSZ
 40
0.0
  9
$DIMTOL
 70
     0
  9
$DIMLIM
 70
     0
  9
$DIMTIH
 70
     1
  9
$DIMTOH
 70
     1
  9
$DIMSE1
 70
     0
  9
$DIMSE2
 70
     0
  9
$DIMTAD
 70
     0
  9
$DIMZIN
 70
     0
  9
$DIMBLK
  1

  9
$LUNITS
 70
     2
  9
$LUPREC
 70
     4
  9
$AXISMODE
 70
     0
  9
$AXISUNIT
 10
0.0
 20
0.0
  9
$SKETCHINC
 40
0.1
  9
$FILLETRAD
 40
0.0
  9
$AUNITS
 70
     0
  9
$AUPREC
 70
     0
  9
$MENU
  1
acad
  9
$ELEVATION
 40
0.0
  9
$THICKNESS
 40
0.0
  9
$VIEWDIR
 10
0.0
 20
0.0
 30
1.0
  9
$LIMCHECK
 70
     0
  9
$BLIPMODE
 70
     1
  9
$CHAMFERA
 40
0.0
  9
$CHAMFERB
 40
0.0
  9
$FASTZOOM
 70
     1
  9
$SKPOLY
 70
     0
  9
$TDCREATE
 40
0.000000000
  9
$TDUPDATE
 40
0.000000000
  9
$TDINDWG
 40
0.0000000000
  9
$TDUSRTIMER
 40
0.0000000000
  9
$USRTIMER
 70
     1
  9
$ANGBASE
 50
0.0
  9
$ANGDIR
 70
     0
  9
$PDMODE
 70
     0
  9
$PDSIZE
 40
0.0
  9
$PLINEWID
 40
0.0
  9
$COORDS
 70
     0
  9
$USERI1
 70
     0
  9
$USERI2
 70
     0
  9
$USERI3
 70
     0
  9
$USERI4
 70
     0
  9
$USERI5
 70
     0
  9
$USERR1
 40
0.0
  9
$USERR2
 40
0.0
  9
$USERR3
 40
0.0
  9
$USERR4
 40
0.0
  9
$USERR5
 40
0.0
  0
ENDSEC
  0
SECTION
  2
TABLES
  0
TABLE
  2
LTYPE
 70
     1
  0
LTYPE
  2
CONTINUOUS
 70
    64
  3
Solid line
 72
    65
 73
     0
 40
0.0
  0
ENDTAB
  0
TABLE
  2
LAYER
 70
     2
  0
LAYER
  2
0
 70
     0
 62
     7
  6
CONTINUOUS
  0
LAYER
  2
LAYER_2
 70
     0
 62
     7
  6
CONTINUOUS
  0
ENDTAB
  0
TABLE
  2
STYLE
 70
     1
  0
STYLE
  2
STANDARD
 70
     0
 40
0.0
 41
1.0
 50
0.0
 71
     0
 42
0.0
  3
txt
  4

  0
ENDTAB
  0
TABLE
  2
VIEW
 70
     0
  0
ENDTAB
  0
ENDSEC
  0
SECTION
  2
BLOCKS
  0
ENDSEC
  0
SECTION
  2
ENTITIES
  0
POLYLINE
  8
0
 66
     1
  0
VERTEX
  8
0
 10
282674.5
 20
-349321.5
  0
VERTEX
  8
0
 10
299524.5
 20
-243876.3
  0
VERTEX
  8
0
 10
317728.5
 20
-349442.7
  0
VERTEX
  8
0
 10
282674.5
 20
-349321.5
  0
SEQEND
  8
0
  0
POLYLINE
  8
0
 66
     1
  0
VERTEX
  8
0
 10
239077.7
 20
-442549.5
  0
VERTEX
  8
0
 10
232970.5
 20
-434517.1
  0
VERTEX
  8
0
 10
229321.7
 20
-428593.5
  0
VERTEX
  8
0
 10
226659.3
 20
-423471.5
  0
VERTEX
  8
0
 10
223516.1
 20
-416052.3
  0
VERTEX
  8
0
 10
220874.1
 20
-407668.7
  0
VERTEX
  8
0
 10
218970.5
 20
-398392.7
  0
VERTEX
  8
0
 10
218175.7
 20
-391097.5
  0
VERTEX
  8
0
 10
217966.9
 20
-384931.5
  0
VERTEX
  8
0
 10
217999.3
 20
-382580.3
  0
VERTEX
  8
0
 10
235141.7
 20
-382580.3
  0
VERTEX
  8
0
 10
235409.7
 20
-387914.7
  0
VERTEX
  8
0
 10
236064.9
 20
-393134.7
  0
VERTEX
  8
0
 10
237818.5
 20
-400989.9
  0
VERTEX
  8
0
 10
240102.9
 20
-407699.5
  0
VERTEX
  8
0
 10
243966.9
 20
-415819.1
  0
VERTEX
  8
0
 10
248826.1
 20
-423326.7
  0
VERTEX
  8
0
 10
253210.5
 20
-428633.1
  0
VERTEX
  8
0
 10
239077.7
 20
-442549.5
  0
SEQEND
  8
0
  0
POLYLINE
  8
0
 66
     1
  0
VERTEX
  8
0
 10
272984.1
 20
-466361.1
  0
VERTEX
  8
0
 10
259336.9
 20
-459771.9
  0
VERTEX
  8
0
 10
250290.5
 20
-453434.3
  0
VERTEX
  8
0
 10
243239.7
 20
-447070.3
  0
VERTEX
  8
0
 10
239252.1
 20
-442755.5
  0
VERTEX
  8
0
 10
239077.7
 20
-442549.5
  0
VERTEX
  8
0
 10
253210.5
 20
-428633.1
  0
VERTEX
  8
0
 10
253371.3
 20
-428810.3
  0
VERTEX
  8
0
 10
260901.3
 20
-435807.9
  0
VERTEX
  8
0
 10
268860.5
 20
-441218.3
  0
VERTEX
  8
0
 10
277004.5
 20
-445161.1
  0
VERTEX
  8
0
 10
272984.1
 20
-466361.1
  0
SEQEND
  8
0
  0
POLYLINE
  8
0
 66
     1
  0
VERTEX
  8
0
 10
360433.3
 20
-443713.1
  0
VERTEX
  8
0
 10
352247.3
 20
-451761.1
  0
VERTEX
  8
0
 10
343079.7
 20
-458592.3
  0
VERTEX
  8
0
 10
333994.1
 20
-463641.5
  0
VERTEX
  8
0
 10
327248.9
 20
-466468.7
  0
VERTEX
  8
0
 10
327135.7
 20
-466509.9
  0
VERTEX
  8
0
 10
322684.1
 20
-445173.5
  0
VERTEX
  8
0
 10
322962.5
 20
-445062.3
  0
VERTEX
  8
0
 10
328191.3
 20
-442670.7
  0
VERTEX
  8
0
 10
336284.5
 20
-437720.3
  0
VERTEX
  8
0
 10
341683.3
 20
-433395.9
  0
VERTEX
  8
0
 10
346062.9
 20
-429115.9
  0
VERTEX
  8
0
 10
360433.3
 20
-443713.1
  0
SEQEND
  8
0
  0
POLYLINE
  8
0
 66
     1
  0
VERTEX
  8
0
 10
382529.3
 20
-382580.3
  0
VERTEX
  8
0
 10
382561.7
 20
-384931.5
  0
VERTEX
  8
0
 10
382480.1
 20
-388797.1
  0
VERTEX
  8
0
 10
381987.3
 20
-395143.5
  0
VERTEX
  8
0
 10
380560.1
 20
-403867.9
  0
VERTEX
  8
0
 10
377549.7
 20
-414565.1
  0
VERTEX
  8
0
 10
374168.1
 20
-422843.1
  0
VERTEX
  8
0
 10
368591.7
 20
-432943.9
  0
VERTEX
  8
0
 10
364870.9
 20
-438291.5
  0
VERTEX
  8
0
 10
360595.3
 20
-443530.3
  0
VERTEX
  8
0
 10
360433.3
 20
-443713.1
  0
VERTEX
  8
0
 10
346062.9
 20
-429115.9
  0
VERTEX
  8
0
 10
346211.7
 20
-428957.9
  0
VERTEX
  8
0
 10
350248.1
 20
-424183.1
  0
VERTEX
  8
0
 10
353849.7
 20
-419025.5
  0
VERTEX
  8
0
 10
358016.5
 20
-411406.7
  0
VERTEX
  8
0
 10
361130.5
 20
-403525.9
  0
VERTEX
  8
0
 10
362976.1
 20
-396715.1
  0
VERTEX
  8
0
 10
364266.1
 20
-388423.5
  0
VERTEX
  8
0
 10
364580.5
 20
-382580.3
  0
VERTEX
  8
0
 10
382529.3
 20
-382580.3
  0
SEQEND
  8
0
  0
POLYLINE
  8
0
 66
     1
  0
VERTEX
  8
0
 10
253144.5
 20
-334732.7
  0
VERTEX
  8
0
 10
248918.5
 20
-339842.7
  0
VERTEX
  8
0
 10
244727.7
 20
-346145.5
  0
VERTEX
  8
0
 10
240824.1
 20
-353849.1
  0
VERTEX
  8
0
 10
238434.9
 20
-360247.9
  0
VERTEX
  8
0
 10
236638.9
 20
-367066.3
  0
VERTEX
  8
0
 10
235447.3
 20
-374918.3
  0
VERTEX
  8
0
 10
235234.9
 20
-378143.1
  0
VERTEX
  8
0
 10
235141.7
 20
-382580.3
  0
VERTEX
  8
0
 10
217999.3
 20
-382580.3
  0
VERTEX
  8
0
 10
218012.9
 20
-382207.1
  0
VERTEX
  8
0
 10
218368.9
 20
-376437.9
  0
VERTEX
  8
0
 10
219082.5
 20
-370775.1
  0
VERTEX
  8
0
 10
220740.5
 20
-362729.1
  0
VERTEX
  8
0
 10
222903.7
 20
-355528.3
  0
VERTEX
  8
0
 10
225624.9
 20
-348641.1
  0
VERTEX
  8
0
 10
229471.3
 20
-341011.1
  0
VERTEX
  8
0
 10
234666.9
 20
-332917.9
  0
VERTEX
  8
0
 10
238956.5
 20
-327459.5
  0
VERTEX
  8
0
 10
242322.1
 20
-323739.9
  0
VERTEX
  8
0
 10
253144.5
 20
-334732.7
  0
SEQEND
  8
0
  0
POLYLINE
  8
0
 66
     1
  0
VERTEX
  8
0
 10
358946.1
 20
-324511.5
  0
VERTEX
  8
0
 10
358958.9
 20
-324525.1
  0
VERTEX
  8
0
 10
363390.9
 20
-329654.3
  0
VERTEX
  8
0
 10
368452.1
 20
-336696.7
  0
VERTEX
  8
0
 10
373413.7
 20
-345449.5
  0
VERTEX
  8
0
 10
377316.9
 20
-354641.9
  0
VERTEX
  8
0
 10
379474.9
 20
-361517.1
  0
VERTEX
  8
0
 10
381408.5
 20
-370510.7
  0
VERTEX
  8
0
 10
382528.1
 20
-382538.7
  0
VERTEX
  8
0
 10
382529.3
 20
-382580.3
  0
VERTEX
  8
0
 10
364580.5
 20
-382580.3
  0
VERTEX
  8
0
 10
364581.7
 20
-382502.7
  0
VERTEX
  8
0
 10
364592.1
 20
-381650.3
  0
VERTEX
  8
0
 10
364127.3
 20
-373502.7
  0
VERTEX
  8
0
 10
362590.5
 20
-364891.5
  0
VERTEX
  8
0
 10
360107.3
 20
-356846.7
  0
VERTEX
  8
0
 10
357396.5
 20
-350594.3
  0
VERTEX
  8
0
 10
353382.5
 20
-343539.9
  0
VERTEX
  8
0
 10
350498.1
 20
-339439.5
  0
VERTEX
  8
0
 10
347536.1
 20
-335807.1
  0
VERTEX
  8
0
 10
347507.7
 20
-335775.1
  0
VERTEX
  8
0
 10
358946.1
 20
-324511.5
  0
SEQEND
  8
0
  0
POLYLINE
  8
0
 66
     1
  0
VERTEX
  8
0
 10
287782.1
 20
-314926.3
  0
VERTEX
  8
0
 10
279906.5
 20
-317065.5
  0
VERTEX
  8
0
 10
274336.1
 20
-319273.1
  0
VERTEX
  8
0
 10
269954.5
 20
-321465.5
  0
VERTEX
  8
0
 10
265270.1
 20
-324308.3
  0
VERTEX
  8
0
 10
261284.5
 20
-327189.1
  0
VERTEX
  8
0
 10
257993.7
 20
-329939.1
  0
VERTEX
  8
0
 10
255404.9
 20
-332376.7
  0
VERTEX
  8
0
 10
253174.1
 20
-334701.1
  0
VERTEX
  8
0
 10
253144.5
 20
-334732.7
  0
VERTEX
  8
0
 10
242322.1
 20
-323739.9
  0
VERTEX
  8
0
 10
242338.1
 20
-323723.1
  0
VERTEX
  8
0
 10
247915.7
 20
-318419.1
  0
VERTEX
  8
0
 10
251478.1
 20
-315495.1
  0
VERTEX
  8
0
 10
255357.3
 20
-312661.9
  0
VERTEX
  8
0
 10
258487.3
 20
-310615.1
  0
VERTEX
  8
0
 10
261808.1
 20
-308657.5
  0
VERTEX
  8
0
 10
266879.7
 20
-306058.3
  0
VERTEX
  8
0
 10
271761.3
 20
-303966.3
  0
VERTEX
  8
0
 10
277314.5
 20
-302037.5
  0
VERTEX
  8
0
 10
283548.9
 20
-300406.7
  0
VERTEX
  8
0
 10
290398.1
 20
-299050.3
  0
VERTEX
  8
0
 10
287782.1
 20
-314926.3
  0
SEQEND
  8
0
  0
POLYLINE
  8
0
 66
     1
  0
VERTEX
  8
0
 10
308764.9
 20
-299068.7
  0
VERTEX
  8
0
 10
308997.3
 20
-299095.5
  0
VERTEX
  8
0
 10
321792.1
 20
-301615.5
  0
VERTEX
  8
0
 10
331219.7
 20
-304965.1
  0
VERTEX
  8
0
 10
346640.9
 20
-313687.1
  0
VERTEX
  8
0
 10
352524.1
 20
-318333.5
  0
VERTEX
  8
0
 10
358946.1
 20
-324511.5
  0
VERTEX
  8
0
 10
347507.7
 20
-335775.1
  0
VERTEX
  8
0
 10
342522.1
 20
-330660.3
  0
VERTEX
  8
0
 10
337038.5
 20
-326125.9
  0
VERTEX
  8
0
 10
330122.5
 20
-321662.7
  0
VERTEX
  8
0
 10
324481.3
 20
-318872.3
  0
VERTEX
  8
0
 10
316126.1
 20
-315933.1
  0
VERTEX
  8
0
 10
311560.1
 20
-314870.3
  0
VERTEX
  8
0
 10
311444.1
 20
-314847.9
  0
VERTEX
  8
0
 10
308764.9
 20
-299068.7
  0
SEQEND
  8
0
  0
POLYLINE
  8
0
 66
     1
  0
VERTEX
  8
0
 10
265562.1
 20
-502495.5
  0
VERTEX
  8
0
 10
282815.7
 20
-415353.9
  0
VERTEX
  8
0
 10
317104.5
 20
-415353.9
  0
VERTEX
  8
0
 10
334576.5
 20
-502932.3
  0
VERTEX
  8
0
 10
300069.3
 20
-467551.5
  0
VERTEX
  8
0
 10
265562.1
 20
-502495.5
  0
SEQEND
  8
0
  0
POLYLINE
  8
0
 66
     1
  0
VERTEX
  8
0
 10
290974.1
 20
-393449.9
  0
VERTEX
  8
0
 10
290913.7
 20
-370816.7
  0
VERTEX
  8
0
 10
293938.9
 20
-370816.7
  0
VERTEX
  8
0
 10
305918.9
 20
-388534.7
  0
VERTEX
  8
0
 10
305918.9
 20
-370816.7
  0
VERTEX
  8
0
 10
308762.5
 20
-370816.7
  0
VERTEX
  8
0
 10
308762.5
 20
-393449.9
  0
VERTEX
  8
0
 10
305797.7
 20
-393449.9
  0
VERTEX
  8
0
 10
293757.3
 20
-375731.5
  0
VERTEX
  8
0
 10
293757.3
 20
-393449.9
  0
VERTEX
  8
0
 10
290974.1
 20
-393449.9
  0
SEQEND
  8
0
  0
ENDSEC
  0
EOF
